<?xml version="1.0" encoding="UTF-8" standalone="no"?>
<!DOCTYPE svg PUBLIC "-//W3C//DTD SVG 1.1//EN" "http://www.w3.org/Graphics/SVG/1.1/DTD/svg11.dtd">
<svg width="100%" height="100%" viewBox="0 0 50 50" version="1.1" xmlns="http://www.w3.org/2000/svg" xmlns:xlink="http://www.w3.org/1999/xlink" xml:space="preserve" xmlns:serif="http://www.serif.com/" style="fill-rule:evenodd;clip-rule:evenodd;stroke-linejoin:round;stroke-miterlimit:2;">
    <path d="M25,-0.031C18.938,-0.031 13.969,4.773 13.969,10.719L13.969,23.281C13.969,29.227 18.938,34.031 25,34.031C31.063,34.031 36.031,29.227 36.031,23.281L36.031,10.719C36.031,4.773 31.063,-0.031 25,-0.031ZM25,2.031C29.984,2.031 33.969,5.914 33.969,10.719L33.969,11L28.406,11C27.855,11.027 27.426,11.496 27.453,12.047C27.48,12.598 27.949,13.027 28.5,13L33.969,13L33.969,15L28.406,15C27.855,15.027 27.426,15.496 27.453,16.047C27.48,16.598 27.949,17.027 28.5,17L33.969,17L33.969,19L28.406,19C27.855,19.027 27.426,19.496 27.453,20.047C27.48,20.598 27.949,21.027 28.5,21L33.969,21L33.969,23.281C33.969,28.086 29.984,31.969 25,31.969C20.016,31.969 16.031,28.086 16.031,23.281L16.031,21L21.5,21C21.859,21.004 22.195,20.816 22.379,20.504C22.559,20.191 22.559,19.809 22.379,19.496C22.195,19.184 21.859,18.996 21.5,19L16.031,19L16.031,17L21.5,17C21.859,17.004 22.195,16.816 22.379,16.504C22.559,16.191 22.559,15.809 22.379,15.496C22.195,15.184 21.859,14.996 21.5,15L16.031,15L16.031,13L21.5,13C21.859,13.004 22.195,12.816 22.379,12.504C22.559,12.191 22.559,11.809 22.379,11.496C22.195,11.184 21.859,10.996 21.5,11L16.031,11L16.031,10.719C16.031,5.914 20.016,2.031 25,2.031ZM9.813,17.125C9.402,17.211 9.113,17.582 9.125,18L9.125,23C9.125,30.703 14.672,37.168 21.969,38.594L21.969,45L15.469,45C13.566,45 12,46.57 12,48.469L12,49.938L37.875,49.938L37.875,48.469C37.875,46.57 36.309,45 34.406,45L28.031,45L28.031,38.594C35.328,37.168 40.875,30.703 40.875,23L40.875,18C40.875,17.516 40.484,17.125 40,17.125C39.516,17.125 39.125,17.516 39.125,18L39.125,23C39.125,30.801 32.801,37.125 25,37.125C17.199,37.125 10.875,30.801 10.875,23L10.875,18C10.879,17.75 10.773,17.512 10.59,17.344C10.402,17.176 10.156,17.094 9.906,17.125L9.813,17.125ZM24.031,38.813C24.352,38.832 24.676,38.875 25,38.875C25.324,38.875 25.648,38.832 25.969,38.813L25.969,44.969L24.031,44.969L24.031,38.813ZM15.469,47L22.75,47C22.832,47.02 22.914,47.031 23,47.031L27,47.031C27.074,47.027 27.148,47.02 27.219,47L34.406,47C35.047,47 35.473,47.422 35.688,47.969L14.188,47.969C14.402,47.422 14.824,47 15.469,47Z" style="fill:rgb(55,125,255);fill-rule:nonzero;"/>
</svg>
